<svg xmlns="http://www.w3.org/2000/svg" width="800" height="1000" viewBox="0 0 800 1000" style="background:#ffffff;font-family:"Noto Sans CJK SC", "WenQuanYi Micro Hei", "Microsoft YaHei", sans-serif;font-size:14px;">
<text x="400.0" y="35" text-anchor="middle" fill="#1a1a1a" font-size="18px" font-weight="bold">蒸腾拉力—内聚力—张力学说</text>
<rect x="120" y="780" width="560" height="200" fill="#8b5a2b" stroke="#5c3a1e" rx="0"/>
<text x="400" y="820" text-anchor="middle" fill="#fff" font-size="14px" font-weight="normal">土壤（高水势）</text>
<path d="M 360 780 Q 300 850 250 900 Q 320 880 360 840 Q 420 900 500 920 Q 450 860 440 780 Z" fill="#d2a679" stroke="#8b4513"/>
<rect x="370" y="250" width="60" height="540" fill="#8b4513" stroke="#5c3a1e" rx="0"/>
<rect x="385" y="250" width="30" height="540" fill="#4fa4f4" stroke="#1f77b4" rx="0"/>
<rect x="680" y="250" width="30" height="540" fill="url(#wpgrad)" stroke="#333" rx="0"/>
<text x="695" y="240" text-anchor="middle" fill="#1a1a1a" font-size="12px" font-weight="normal">水势</text>
<text x="695" y="265" text-anchor="middle" fill="#1a1a1a" font-size="12px" font-weight="normal">高</text>
<text x="695" y="790" text-anchor="middle" fill="#1a1a1a" font-size="12px" font-weight="normal">低</text>
<defs><linearGradient id="wpgrad" x1="0" y1="0" x2="0" y2="1"><stop offset="0%" stop-color="#a8d5ff"/><stop offset="100%" stop-color="#003366"/></linearGradient></defs>
<line x1="400" y1="325" x2="400" y2="300" stroke="#1f77b4" stroke-width="2"/>
<polygon points="400,300 394.01527855896046,291.9885638445307 405.98472144103954,291.9885638445307" fill="#1f77b4"/>
<line x1="400" y1="385" x2="400" y2="360" stroke="#1f77b4" stroke-width="2"/>
<polygon points="400,360 394.01527855896046,351.9885638445307 405.98472144103954,351.9885638445307" fill="#1f77b4"/>
<line x1="400" y1="445" x2="400" y2="420" stroke="#1f77b4" stroke-width="2"/>
<polygon points="400,420 394.01527855896046,411.9885638445307 405.98472144103954,411.9885638445307" fill="#1f77b4"/>
<line x1="400" y1="505" x2="400" y2="480" stroke="#1f77b4" stroke-width="2"/>
<polygon points="400,480 394.01527855896046,471.9885638445307 405.98472144103954,471.9885638445307" fill="#1f77b4"/>
<line x1="400" y1="565" x2="400" y2="540" stroke="#1f77b4" stroke-width="2"/>
<polygon points="400,540 394.01527855896046,531.9885638445306 405.98472144103954,531.9885638445306" fill="#1f77b4"/>
<line x1="400" y1="625" x2="400" y2="600" stroke="#1f77b4" stroke-width="2"/>
<polygon points="400,600 394.01527855896046,591.9885638445306 405.98472144103954,591.9885638445306" fill="#1f77b4"/>
<line x1="400" y1="685" x2="400" y2="660" stroke="#1f77b4" stroke-width="2"/>
<polygon points="400,660 394.01527855896046,651.9885638445306 405.98472144103954,651.9885638445306" fill="#1f77b4"/>
<line x1="400" y1="745" x2="400" y2="720" stroke="#1f77b4" stroke-width="2"/>
<polygon points="400,720 394.01527855896046,711.9885638445306 405.98472144103954,711.9885638445306" fill="#1f77b4"/>
<path d="M 360 250 Q 250 180 220 120 Q 300 150 360 230 Z" fill="#32cd32" stroke="#228b22"/>
<path d="M 440 250 Q 550 180 580 120 Q 500 150 440 230 Z" fill="#32cd32" stroke="#228b22"/>
<path d="M 400 250 Q 400 160 400 100 Q 420 160 400 250 Z" fill="#32cd32" stroke="#228b22"/>
<circle cx="250" cy="100" r="5" fill="#87ceeb" stroke="#1f77b4"/>
<circle cx="300" cy="80" r="5" fill="#87ceeb" stroke="#1f77b4"/>
<circle cx="520" cy="90" r="5" fill="#87ceeb" stroke="#1f77b4"/>
<circle cx="560" cy="110" r="5" fill="#87ceeb" stroke="#1f77b4"/>
<circle cx="390" cy="70" r="5" fill="#87ceeb" stroke="#1f77b4"/>
<text x="420" y="85" text-anchor="middle" fill="#1a1a1a" font-size="13px" font-weight="normal">蒸腾作用</text>
<line x1="400" y1="100" x2="400" y2="70" stroke="#87ceeb" stroke-width="2"/>
<polygon points="400,70 394.01527855896046,61.98856384453066 405.98472144103954,61.98856384453066" fill="#87ceeb"/>
<rect x="130" y="600" width="220" height="160" fill="#fff8dc" stroke="#d2b48c" rx="0"/>
<text x="240" y="625" text-anchor="middle" fill="#1a1a1a" font-size="13px" font-weight="bold">根部吸水</text>
<path d="M 180 750 Q 220 700 260 720 Q 240 680 220 650" fill="none" stroke="#1f77b4"/>
<line x1="220" y1="660" x2="220" y2="620" stroke="#1f77b4" stroke-width="2"/>
<polygon points="220,620 214.01527855896043,611.9885638445306 225.98472144103957,611.9885638445306" fill="#1f77b4"/>
<text x="240" y="720" text-anchor="middle" fill="#1a1a1a" font-size="12px" font-weight="normal">水势梯度</text>
<rect x="480" y="420" width="300" height="240" fill="#f0f8ff" stroke="#1f77b4" rx="0"/>
<text x="630" y="445" text-anchor="middle" fill="#1a1a1a" font-size="13px" font-weight="bold">木质部导管水柱</text>
<rect x="500" y="460" width="260" height="180" fill="#e6f3ff" stroke="#1f77b4" rx="0"/>
<circle cx="520" cy="480" r="6" fill="#4fa4f4" stroke="#1f77b4"/>
<circle cx="590" cy="480" r="6" fill="#4fa4f4" stroke="#1f77b4"/>
<circle cx="660" cy="480" r="6" fill="#4fa4f4" stroke="#1f77b4"/>
<circle cx="520" cy="500" r="6" fill="#4fa4f4" stroke="#1f77b4"/>
<circle cx="590" cy="500" r="6" fill="#4fa4f4" stroke="#1f77b4"/>
<circle cx="660" cy="500" r="6" fill="#4fa4f4" stroke="#1f77b4"/>
<circle cx="520" cy="520" r="6" fill="#4fa4f4" stroke="#1f77b4"/>
<circle cx="590" cy="520" r="6" fill="#4fa4f4" stroke="#1f77b4"/>
<circle cx="660" cy="520" r="6" fill="#4fa4f4" stroke="#1f77b4"/>
<circle cx="520" cy="540" r="6" fill="#4fa4f4" stroke="#1f77b4"/>
<circle cx="590" cy="540" r="6" fill="#4fa4f4" stroke="#1f77b4"/>
<circle cx="660" cy="540" r="6" fill="#4fa4f4" stroke="#1f77b4"/>
<circle cx="520" cy="560" r="6" fill="#4fa4f4" stroke="#1f77b4"/>
<circle cx="590" cy="560" r="6" fill="#4fa4f4" stroke="#1f77b4"/>
<circle cx="660" cy="560" r="6" fill="#4fa4f4" stroke="#1f77b4"/>
<circle cx="520" cy="580" r="6" fill="#4fa4f4" stroke="#1f77b4"/>
<circle cx="590" cy="580" r="6" fill="#4fa4f4" stroke="#1f77b4"/>
<circle cx="660" cy="580" r="6" fill="#4fa4f4" stroke="#1f77b4"/>
<circle cx="520" cy="600" r="6" fill="#4fa4f4" stroke="#1f77b4"/>
<circle cx="590" cy="600" r="6" fill="#4fa4f4" stroke="#1f77b4"/>
<circle cx="660" cy="600" r="6" fill="#4fa4f4" stroke="#1f77b4"/>
<circle cx="520" cy="620" r="6" fill="#4fa4f4" stroke="#1f77b4"/>
<circle cx="590" cy="620" r="6" fill="#4fa4f4" stroke="#1f77b4"/>
<circle cx="660" cy="620" r="6" fill="#4fa4f4" stroke="#1f77b4"/>
<line x1="596" y1="480" x2="624" y2="480" stroke="#1f77b4" stroke-width="2" />
<line x1="596" y1="500" x2="624" y2="500" stroke="#1f77b4" stroke-width="2" />
<line x1="596" y1="520" x2="624" y2="520" stroke="#1f77b4" stroke-width="2" />
<line x1="596" y1="540" x2="624" y2="540" stroke="#1f77b4" stroke-width="2" />
<line x1="596" y1="560" x2="624" y2="560" stroke="#1f77b4" stroke-width="2" />
<line x1="596" y1="580" x2="624" y2="580" stroke="#1f77b4" stroke-width="2" />
<line x1="596" y1="600" x2="624" y2="600" stroke="#1f77b4" stroke-width="2" />
<line x1="596" y1="620" x2="624" y2="620" stroke="#1f77b4" stroke-width="2" />
<line x1="620" y1="620" x2="620" y2="480" stroke="#1f77b4" stroke-width="2"/>
<polygon points="620,480 614.0152785589604,471.9885638445307 625.9847214410396,471.9885638445307" fill="#1f77b4"/>
<text x="640" y="550" text-anchor="middle" fill="#1a1a1a" font-size="13px" font-weight="normal">内聚力</text>
<line x1="680" y1="480" x2="680" y2="620" stroke="#d62728" stroke-width="2"/>
<polygon points="680,620 685.9847214410396,628.0114361554694 674.0152785589604,628.0114361554694" fill="#d62728"/>
<text x="700" y="550" text-anchor="middle" fill="#d62728" font-size="13px" font-weight="normal">张力</text>
<text x="290" y="510" text-anchor="middle" fill="#1a1a1a" font-size="14px" font-weight="normal">根</text>
<text x="300" y="380" text-anchor="middle" fill="#1a1a1a" font-size="14px" font-weight="normal">茎（木质部）</text>
<text x="300" y="180" text-anchor="middle" fill="#1a1a1a" font-size="14px" font-weight="normal">叶</text>
<text x="420" y="960" text-anchor="middle" fill="#1a1a1a" font-size="14px" font-weight="normal">大气（低水势）</text>
</svg>
